{
	"patcher" : 	{
		"fileversion" : 1,
		"appversion" : 		{
			"major" : 7,
			"minor" : 2,
			"revision" : 1,
			"architecture" : "x64",
			"modernui" : 1
		}
,
		"rect" : [ 67.0, 110.0, 1495.0, 857.0 ],
		"bglocked" : 0,
		"openinpresentation" : 0,
		"default_fontsize" : 12.0,
		"default_fontface" : 0,
		"default_fontname" : "Arial",
		"gridonopen" : 1,
		"gridsize" : [ 15.0, 15.0 ],
		"gridsnaponopen" : 1,
		"objectsnaponopen" : 1,
		"statusbarvisible" : 2,
		"toolbarvisible" : 1,
		"lefttoolbarpinned" : 0,
		"toptoolbarpinned" : 0,
		"righttoolbarpinned" : 0,
		"bottomtoolbarpinned" : 0,
		"toolbars_unpinned_last_save" : 0,
		"tallnewobj" : 0,
		"boxanimatetime" : 200,
		"enablehscroll" : 1,
		"enablevscroll" : 1,
		"devicewidth" : 0.0,
		"description" : "",
		"digest" : "",
		"tags" : "",
		"style" : "",
		"subpatcher_template" : "",
		"boxes" : [ 			{
				"box" : 				{
					"id" : "obj-93",
					"maxclass" : "newobj",
					"numinlets" : 2,
					"numoutlets" : 1,
					"outlettype" : [ "bang" ],
					"patching_rect" : [ 977.0, 137.0, 63.0, 22.0 ],
					"style" : "",
					"text" : "delay 750"
				}

			}
, 			{
				"box" : 				{
					"id" : "obj-78",
					"maxclass" : "message",
					"numinlets" : 2,
					"numoutlets" : 1,
					"outlettype" : [ "" ],
					"patching_rect" : [ 1119.0, 201.0, 37.0, 22.0 ],
					"presentation_rect" : [ 1115.0, 124.0, 0.0, 0.0 ],
					"style" : "",
					"text" : "5000"
				}

			}
, 			{
				"box" : 				{
					"id" : "obj-79",
					"maxclass" : "message",
					"numinlets" : 2,
					"numoutlets" : 1,
					"outlettype" : [ "" ],
					"patching_rect" : [ 1023.0, 171.0, 37.0, 22.0 ],
					"presentation_rect" : [ 1019.0, 94.0, 0.0, 0.0 ],
					"style" : "",
					"text" : "1000"
				}

			}
, 			{
				"box" : 				{
					"id" : "obj-80",
					"maxclass" : "toggle",
					"numinlets" : 1,
					"numoutlets" : 1,
					"outlettype" : [ "int" ],
					"parameter_enable" : 0,
					"patching_rect" : [ 977.0, 103.0, 24.0, 24.0 ],
					"presentation_rect" : [ 973.0, 101.0, 0.0, 0.0 ],
					"style" : ""
				}

			}
, 			{
				"box" : 				{
					"id" : "obj-81",
					"maxclass" : "button",
					"numinlets" : 1,
					"numoutlets" : 1,
					"outlettype" : [ "bang" ],
					"patching_rect" : [ 941.0, 61.0, 24.0, 24.0 ],
					"presentation_rect" : [ 941.0, 59.0, 0.0, 0.0 ],
					"style" : ""
				}

			}
, 			{
				"box" : 				{
					"disabled" : [ 0, 0, 0, 0, 0, 0, 0, 0, 0, 0 ],
					"id" : "obj-82",
					"itemtype" : 0,
					"maxclass" : "radiogroup",
					"numinlets" : 1,
					"numoutlets" : 1,
					"outlettype" : [ "" ],
					"parameter_enable" : 0,
					"patching_rect" : [ 941.0, 97.0, 18.0, 162.0 ],
					"presentation_rect" : [ 941.0, 95.0, 0.0, 0.0 ],
					"size" : 10,
					"style" : "",
					"value" : 8
				}

			}
, 			{
				"box" : 				{
					"id" : "obj-83",
					"maxclass" : "message",
					"numinlets" : 2,
					"numoutlets" : 1,
					"outlettype" : [ "" ],
					"patching_rect" : [ 1063.0, 201.0, 50.0, 22.0 ],
					"presentation_rect" : [ 1059.0, 124.0, 0.0, 0.0 ],
					"style" : "",
					"text" : "-88"
				}

			}
, 			{
				"box" : 				{
					"id" : "obj-84",
					"maxclass" : "number",
					"minimum" : 0,
					"numinlets" : 1,
					"numoutlets" : 2,
					"outlettype" : [ "", "bang" ],
					"parameter_enable" : 0,
					"patching_rect" : [ 1063.0, 171.0, 50.0, 22.0 ],
					"presentation_rect" : [ 1059.0, 94.0, 0.0, 0.0 ],
					"style" : ""
				}

			}
, 			{
				"box" : 				{
					"id" : "obj-85",
					"maxclass" : "message",
					"numinlets" : 2,
					"numoutlets" : 1,
					"outlettype" : [ "" ],
					"patching_rect" : [ 1023.0, 201.0, 31.0, 22.0 ],
					"presentation_rect" : [ 1019.0, 124.0, 0.0, 0.0 ],
					"style" : "",
					"text" : "500"
				}

			}
, 			{
				"box" : 				{
					"id" : "obj-86",
					"maxclass" : "newobj",
					"numinlets" : 2,
					"numoutlets" : 1,
					"outlettype" : [ "bang" ],
					"patching_rect" : [ 977.0, 231.0, 71.0, 22.0 ],
					"style" : "",
					"text" : "metro 1000"
				}

			}
, 			{
				"box" : 				{
					"id" : "obj-77",
					"maxclass" : "button",
					"numinlets" : 1,
					"numoutlets" : 1,
					"outlettype" : [ "bang" ],
					"patching_rect" : [ 234.5, 248.0, 24.0, 24.0 ],
					"style" : ""
				}

			}
, 			{
				"box" : 				{
					"id" : "obj-75",
					"maxclass" : "newobj",
					"numinlets" : 2,
					"numoutlets" : 1,
					"outlettype" : [ "bang" ],
					"patching_rect" : [ 160.0, 248.0, 63.0, 22.0 ],
					"style" : "",
					"text" : "delay 150"
				}

			}
, 			{
				"box" : 				{
					"id" : "obj-74",
					"maxclass" : "message",
					"numinlets" : 2,
					"numoutlets" : 1,
					"outlettype" : [ "" ],
					"patching_rect" : [ 221.0, 170.0, 31.0, 22.0 ],
					"style" : "",
					"text" : "250"
				}

			}
, 			{
				"box" : 				{
					"id" : "obj-72",
					"maxclass" : "message",
					"numinlets" : 2,
					"numoutlets" : 1,
					"outlettype" : [ "" ],
					"patching_rect" : [ 216.0, 200.0, 31.0, 22.0 ],
					"style" : "",
					"text" : "100"
				}

			}
, 			{
				"box" : 				{
					"id" : "obj-70",
					"maxclass" : "newobj",
					"numinlets" : 2,
					"numoutlets" : 1,
					"outlettype" : [ "bang" ],
					"patching_rect" : [ 74.0, 89.0, 63.0, 22.0 ],
					"style" : "",
					"text" : "delay 250"
				}

			}
, 			{
				"box" : 				{
					"id" : "obj-69",
					"maxclass" : "toggle",
					"numinlets" : 1,
					"numoutlets" : 1,
					"outlettype" : [ "int" ],
					"parameter_enable" : 0,
					"patching_rect" : [ 267.0, 54.0, 24.0, 24.0 ],
					"style" : ""
				}

			}
, 			{
				"box" : 				{
					"id" : "obj-67",
					"maxclass" : "message",
					"numinlets" : 2,
					"numoutlets" : 1,
					"outlettype" : [ "" ],
					"patching_rect" : [ 802.0, 84.0, 37.0, 22.0 ],
					"style" : "",
					"text" : "5000"
				}

			}
, 			{
				"box" : 				{
					"id" : "obj-56",
					"maxclass" : "message",
					"numinlets" : 2,
					"numoutlets" : 1,
					"outlettype" : [ "" ],
					"patching_rect" : [ 706.0, 54.0, 37.0, 22.0 ],
					"presentation_rect" : [ 703.0, 54.0, 0.0, 0.0 ],
					"style" : "",
					"text" : "1000"
				}

			}
, 			{
				"box" : 				{
					"id" : "obj-57",
					"maxclass" : "toggle",
					"numinlets" : 1,
					"numoutlets" : 1,
					"outlettype" : [ "int" ],
					"parameter_enable" : 0,
					"patching_rect" : [ 660.0, 61.0, 24.0, 24.0 ],
					"presentation_rect" : [ 657.0, 61.0, 0.0, 0.0 ],
					"style" : ""
				}

			}
, 			{
				"box" : 				{
					"id" : "obj-58",
					"maxclass" : "button",
					"numinlets" : 1,
					"numoutlets" : 1,
					"outlettype" : [ "bang" ],
					"patching_rect" : [ 628.0, 19.0, 24.0, 24.0 ],
					"presentation_rect" : [ 625.0, 19.0, 0.0, 0.0 ],
					"style" : ""
				}

			}
, 			{
				"box" : 				{
					"disabled" : [ 0, 0 ],
					"id" : "obj-59",
					"itemtype" : 0,
					"maxclass" : "radiogroup",
					"numinlets" : 1,
					"numoutlets" : 1,
					"outlettype" : [ "" ],
					"parameter_enable" : 0,
					"patching_rect" : [ 628.0, 55.0, 18.0, 34.0 ],
					"presentation_rect" : [ 625.0, 55.0, 0.0, 0.0 ],
					"size" : 2,
					"style" : "",
					"value" : 1
				}

			}
, 			{
				"box" : 				{
					"id" : "obj-60",
					"maxclass" : "message",
					"numinlets" : 2,
					"numoutlets" : 1,
					"outlettype" : [ "" ],
					"patching_rect" : [ 746.0, 84.0, 50.0, 22.0 ],
					"presentation_rect" : [ 743.0, 84.0, 0.0, 0.0 ],
					"style" : "",
					"text" : "-88"
				}

			}
, 			{
				"box" : 				{
					"id" : "obj-61",
					"maxclass" : "number",
					"minimum" : 0,
					"numinlets" : 1,
					"numoutlets" : 2,
					"outlettype" : [ "", "bang" ],
					"parameter_enable" : 0,
					"patching_rect" : [ 746.0, 54.0, 50.0, 22.0 ],
					"presentation_rect" : [ 743.0, 54.0, 0.0, 0.0 ],
					"style" : ""
				}

			}
, 			{
				"box" : 				{
					"id" : "obj-62",
					"maxclass" : "message",
					"numinlets" : 2,
					"numoutlets" : 1,
					"outlettype" : [ "" ],
					"patching_rect" : [ 706.0, 84.0, 31.0, 22.0 ],
					"presentation_rect" : [ 703.0, 84.0, 0.0, 0.0 ],
					"style" : "",
					"text" : "500"
				}

			}
, 			{
				"box" : 				{
					"id" : "obj-63",
					"maxclass" : "newobj",
					"numinlets" : 2,
					"numoutlets" : 1,
					"outlettype" : [ "bang" ],
					"patching_rect" : [ 660.0, 114.0, 71.0, 22.0 ],
					"style" : "",
					"text" : "metro 4000"
				}

			}
, 			{
				"box" : 				{
					"id" : "obj-55",
					"maxclass" : "newobj",
					"numinlets" : 1,
					"numoutlets" : 1,
					"outlettype" : [ "dictionary" ],
					"patching_rect" : [ 1163.0, 751.0, 69.0, 22.0 ],
					"style" : "",
					"text" : "filterdesign"
				}

			}
, 			{
				"box" : 				{
					"id" : "obj-47",
					"maxclass" : "message",
					"numinlets" : 2,
					"numoutlets" : 1,
					"outlettype" : [ "" ],
					"patching_rect" : [ 411.0, 187.0, 37.0, 22.0 ],
					"presentation_rect" : [ 419.0, 181.0, 0.0, 0.0 ],
					"style" : "",
					"text" : "1000"
				}

			}
, 			{
				"box" : 				{
					"id" : "obj-48",
					"maxclass" : "toggle",
					"numinlets" : 1,
					"numoutlets" : 1,
					"outlettype" : [ "int" ],
					"parameter_enable" : 0,
					"patching_rect" : [ 365.0, 194.0, 24.0, 24.0 ],
					"presentation_rect" : [ 373.0, 188.0, 0.0, 0.0 ],
					"style" : ""
				}

			}
, 			{
				"box" : 				{
					"id" : "obj-49",
					"maxclass" : "button",
					"numinlets" : 1,
					"numoutlets" : 1,
					"outlettype" : [ "bang" ],
					"patching_rect" : [ 333.0, 152.0, 24.0, 24.0 ],
					"presentation_rect" : [ 339.0, 146.0, 0.0, 0.0 ],
					"style" : ""
				}

			}
, 			{
				"box" : 				{
					"disabled" : [ 0, 0, 0, 0, 0, 0 ],
					"id" : "obj-50",
					"itemtype" : 0,
					"maxclass" : "radiogroup",
					"numinlets" : 1,
					"numoutlets" : 1,
					"outlettype" : [ "" ],
					"parameter_enable" : 0,
					"patching_rect" : [ 333.0, 188.0, 18.0, 98.0 ],
					"presentation_rect" : [ 339.0, 182.0, 0.0, 0.0 ],
					"size" : 6,
					"style" : "",
					"value" : 3
				}

			}
, 			{
				"box" : 				{
					"id" : "obj-51",
					"maxclass" : "message",
					"numinlets" : 2,
					"numoutlets" : 1,
					"outlettype" : [ "" ],
					"patching_rect" : [ 451.0, 217.0, 50.0, 22.0 ],
					"presentation_rect" : [ 459.0, 211.0, 0.0, 0.0 ],
					"style" : "",
					"text" : "-88"
				}

			}
, 			{
				"box" : 				{
					"id" : "obj-52",
					"maxclass" : "number",
					"minimum" : 0,
					"numinlets" : 1,
					"numoutlets" : 2,
					"outlettype" : [ "", "bang" ],
					"parameter_enable" : 0,
					"patching_rect" : [ 451.0, 187.0, 50.0, 22.0 ],
					"presentation_rect" : [ 459.0, 181.0, 0.0, 0.0 ],
					"style" : ""
				}

			}
, 			{
				"box" : 				{
					"id" : "obj-53",
					"maxclass" : "message",
					"numinlets" : 2,
					"numoutlets" : 1,
					"outlettype" : [ "" ],
					"patching_rect" : [ 411.0, 217.0, 31.0, 22.0 ],
					"presentation_rect" : [ 419.0, 211.0, 0.0, 0.0 ],
					"style" : "",
					"text" : "500"
				}

			}
, 			{
				"box" : 				{
					"id" : "obj-54",
					"maxclass" : "newobj",
					"numinlets" : 2,
					"numoutlets" : 1,
					"outlettype" : [ "bang" ],
					"patching_rect" : [ 365.0, 248.0, 65.0, 22.0 ],
					"presentation_rect" : [ 373.0, 242.0, 0.0, 0.0 ],
					"style" : "",
					"text" : "metro 500"
				}

			}
, 			{
				"box" : 				{
					"id" : "obj-46",
					"maxclass" : "message",
					"numinlets" : 2,
					"numoutlets" : 1,
					"outlettype" : [ "" ],
					"patching_rect" : [ 120.0, 170.0, 37.0, 22.0 ],
					"style" : "",
					"text" : "1000"
				}

			}
, 			{
				"box" : 				{
					"id" : "obj-44",
					"maxclass" : "toggle",
					"numinlets" : 1,
					"numoutlets" : 1,
					"outlettype" : [ "int" ],
					"parameter_enable" : 0,
					"patching_rect" : [ 74.0, 125.0, 24.0, 24.0 ],
					"style" : ""
				}

			}
, 			{
				"box" : 				{
					"id" : "obj-42",
					"maxclass" : "button",
					"numinlets" : 1,
					"numoutlets" : 1,
					"outlettype" : [ "bang" ],
					"patching_rect" : [ 40.0, 135.0, 24.0, 24.0 ],
					"style" : ""
				}

			}
, 			{
				"box" : 				{
					"disabled" : [ 0, 0, 0, 0, 0 ],
					"id" : "obj-40",
					"itemtype" : 0,
					"maxclass" : "radiogroup",
					"numinlets" : 1,
					"numoutlets" : 1,
					"outlettype" : [ "" ],
					"parameter_enable" : 0,
					"patching_rect" : [ 40.0, 171.0, 18.0, 82.0 ],
					"size" : 5,
					"style" : "",
					"value" : 3
				}

			}
, 			{
				"box" : 				{
					"id" : "obj-38",
					"maxclass" : "message",
					"numinlets" : 2,
					"numoutlets" : 1,
					"outlettype" : [ "" ],
					"patching_rect" : [ 160.0, 200.0, 50.0, 22.0 ],
					"style" : "",
					"text" : "-88"
				}

			}
, 			{
				"box" : 				{
					"id" : "obj-36",
					"maxclass" : "number",
					"minimum" : 0,
					"numinlets" : 1,
					"numoutlets" : 2,
					"outlettype" : [ "", "bang" ],
					"parameter_enable" : 0,
					"patching_rect" : [ 160.0, 170.0, 50.0, 22.0 ],
					"style" : ""
				}

			}
, 			{
				"box" : 				{
					"id" : "obj-34",
					"maxclass" : "message",
					"numinlets" : 2,
					"numoutlets" : 1,
					"outlettype" : [ "" ],
					"patching_rect" : [ 120.0, 200.0, 31.0, 22.0 ],
					"style" : "",
					"text" : "500"
				}

			}
, 			{
				"box" : 				{
					"id" : "obj-32",
					"maxclass" : "newobj",
					"numinlets" : 2,
					"numoutlets" : 1,
					"outlettype" : [ "bang" ],
					"patching_rect" : [ 74.0, 231.0, 65.0, 22.0 ],
					"style" : "",
					"text" : "metro 500"
				}

			}
, 			{
				"box" : 				{
					"id" : "obj-31",
					"maxclass" : "button",
					"numinlets" : 1,
					"numoutlets" : 1,
					"outlettype" : [ "bang" ],
					"patching_rect" : [ 1312.0, 194.0, 24.0, 24.0 ],
					"style" : ""
				}

			}
, 			{
				"box" : 				{
					"id" : "obj-29",
					"maxclass" : "newobj",
					"numinlets" : 1,
					"numoutlets" : 1,
					"outlettype" : [ "" ],
					"patching_rect" : [ 1312.0, 567.0, 83.0, 22.0 ],
					"style" : "",
					"text" : "loadmess -60"
				}

			}
, 			{
				"box" : 				{
					"id" : "obj-27",
					"maxclass" : "live.gain~",
					"numinlets" : 2,
					"numoutlets" : 5,
					"orientation" : 1,
					"outlettype" : [ "signal", "signal", "", "float", "list" ],
					"parameter_enable" : 1,
					"patching_rect" : [ 941.0, 675.0, 121.0, 49.0 ],
					"presentation_rect" : [ 858.0, 647.0, 50.0, 49.0 ],
					"saved_attribute_attributes" : 					{
						"valueof" : 						{
							"parameter_longname" : "live.gain~[3]",
							"parameter_shortname" : "live.gain~",
							"parameter_type" : 0,
							"parameter_mmin" : -70.0,
							"parameter_mmax" : 6.0,
							"parameter_initial" : [ 0.0 ],
							"parameter_unitstyle" : 4
						}

					}
,
					"varname" : "live.gain~[3]"
				}

			}
, 			{
				"box" : 				{
					"id" : "obj-28",
					"local" : 1,
					"maxclass" : "ezdac~",
					"numinlets" : 2,
					"numoutlets" : 0,
					"patching_rect" : [ 941.0, 735.0, 45.0, 45.0 ],
					"presentation_rect" : [ 858.0, 707.0, 45.0, 45.0 ],
					"style" : ""
				}

			}
, 			{
				"box" : 				{
					"id" : "obj-25",
					"maxclass" : "live.gain~",
					"numinlets" : 2,
					"numoutlets" : 5,
					"orientation" : 1,
					"outlettype" : [ "signal", "signal", "", "float", "list" ],
					"parameter_enable" : 1,
					"patching_rect" : [ 611.0, 643.0, 121.0, 49.0 ],
					"presentation_rect" : [ 611.0, 643.0, 50.0, 49.0 ],
					"saved_attribute_attributes" : 					{
						"valueof" : 						{
							"parameter_longname" : "live.gain~[2]",
							"parameter_shortname" : "live.gain~",
							"parameter_type" : 0,
							"parameter_mmin" : -70.0,
							"parameter_mmax" : 6.0,
							"parameter_initial" : [ 0.0 ],
							"parameter_unitstyle" : 4
						}

					}
,
					"varname" : "live.gain~[2]"
				}

			}
, 			{
				"box" : 				{
					"id" : "obj-26",
					"local" : 1,
					"maxclass" : "ezdac~",
					"numinlets" : 2,
					"numoutlets" : 0,
					"patching_rect" : [ 611.0, 703.0, 45.0, 45.0 ],
					"presentation_rect" : [ 611.0, 703.0, 45.0, 45.0 ],
					"style" : ""
				}

			}
, 			{
				"box" : 				{
					"id" : "obj-23",
					"maxclass" : "live.gain~",
					"numinlets" : 2,
					"numoutlets" : 5,
					"orientation" : 1,
					"outlettype" : [ "signal", "signal", "", "float", "list" ],
					"parameter_enable" : 1,
					"patching_rect" : [ 333.0, 626.0, 121.0, 49.0 ],
					"presentation_rect" : [ 333.0, 637.0, 50.0, 49.0 ],
					"saved_attribute_attributes" : 					{
						"valueof" : 						{
							"parameter_longname" : "live.gain~[1]",
							"parameter_shortname" : "live.gain~",
							"parameter_type" : 0,
							"parameter_mmin" : -70.0,
							"parameter_mmax" : 6.0,
							"parameter_initial" : [ 0.0 ],
							"parameter_unitstyle" : 4
						}

					}
,
					"varname" : "live.gain~[1]"
				}

			}
, 			{
				"box" : 				{
					"id" : "obj-24",
					"local" : 1,
					"maxclass" : "ezdac~",
					"numinlets" : 2,
					"numoutlets" : 0,
					"patching_rect" : [ 333.0, 697.0, 45.0, 45.0 ],
					"presentation_rect" : [ 333.0, 697.0, 45.0, 45.0 ],
					"style" : ""
				}

			}
, 			{
				"box" : 				{
					"clipheight" : 29.111111,
					"data" : 					{
						"clips" : [ 							{
								"filename" : "F:/sound packs/kits/wu-tang_clan/wu-tang_clan-producer_kit_v.1.01b_(drum_samples)-qbh/wu-tang_clan-snare1-qbh.wav",
								"filekind" : "audiofile",
								"selection" : [ 0.0, 1.0 ],
								"loop" : 0,
								"content_state" : 								{
									"pitchshift" : [ 1.0 ],
									"slurtime" : [ 0.0 ],
									"mode" : [ "basic" ],
									"originallength" : [ 0.0, "ticks" ],
									"pitchcorrection" : [ 0 ],
									"formantcorrection" : [ 0 ],
									"timestretch" : [ 0 ],
									"quality" : [ "basic" ],
									"formant" : [ 1.0 ],
									"basictuning" : [ 440 ],
									"originaltempo" : [ 120.0 ],
									"originallengthms" : [ 0.0 ],
									"speed" : [ 1.0 ],
									"followglobaltempo" : [ 0 ],
									"play" : [ 0 ]
								}

							}
, 							{
								"filename" : "F:/sound packs/kits/wu-tang_clan/wu-tang_clan-producer_kit_v.1.01b_(drum_samples)-qbh/wu-tang_clan-snare2-qbh.wav",
								"filekind" : "audiofile",
								"selection" : [ 0.0, 1.0 ],
								"loop" : 0,
								"content_state" : 								{
									"pitchshift" : [ 1.0 ],
									"slurtime" : [ 0.0 ],
									"mode" : [ "basic" ],
									"originallength" : [ 0.0, "ticks" ],
									"pitchcorrection" : [ 0 ],
									"formantcorrection" : [ 0 ],
									"timestretch" : [ 0 ],
									"quality" : [ "basic" ],
									"formant" : [ 1.0 ],
									"basictuning" : [ 440 ],
									"originaltempo" : [ 120.0 ],
									"originallengthms" : [ 0.0 ],
									"speed" : [ 1.0 ],
									"followglobaltempo" : [ 0 ],
									"play" : [ 0 ]
								}

							}
, 							{
								"filename" : "F:/sound packs/kits/wu-tang_clan/wu-tang_clan-producer_kit_v.1.01b_(drum_samples)-qbh/wu-tang_clan-snare3-qbh.wav",
								"filekind" : "audiofile",
								"selection" : [ 0.0, 1.0 ],
								"loop" : 0,
								"content_state" : 								{
									"pitchshift" : [ 1.0 ],
									"slurtime" : [ 0.0 ],
									"mode" : [ "basic" ],
									"originallength" : [ 0.0, "ticks" ],
									"pitchcorrection" : [ 0 ],
									"formantcorrection" : [ 0 ],
									"timestretch" : [ 0 ],
									"quality" : [ "basic" ],
									"formant" : [ 1.0 ],
									"basictuning" : [ 440 ],
									"originaltempo" : [ 120.0 ],
									"originallengthms" : [ 0.0 ],
									"speed" : [ 1.0 ],
									"followglobaltempo" : [ 0 ],
									"play" : [ 0 ]
								}

							}
, 							{
								"filename" : "F:/sound packs/kits/wu-tang_clan/wu-tang_clan-producer_kit_v.1.01b_(drum_samples)-qbh/wu-tang_clan-snare4-qbh.wav",
								"filekind" : "audiofile",
								"selection" : [ 0.0, 1.0 ],
								"loop" : 0,
								"content_state" : 								{
									"pitchshift" : [ 1.0 ],
									"slurtime" : [ 0.0 ],
									"mode" : [ "basic" ],
									"originallength" : [ 0.0, "ticks" ],
									"pitchcorrection" : [ 0 ],
									"formantcorrection" : [ 0 ],
									"timestretch" : [ 0 ],
									"quality" : [ "basic" ],
									"formant" : [ 1.0 ],
									"basictuning" : [ 440 ],
									"originaltempo" : [ 120.0 ],
									"originallengthms" : [ 0.0 ],
									"speed" : [ 1.0 ],
									"followglobaltempo" : [ 0 ],
									"play" : [ 0 ]
								}

							}
, 							{
								"filename" : "F:/sound packs/kits/wu-tang_clan/wu-tang_clan-producer_kit_v.1.01b_(drum_samples)-qbh/wu-tang_clan-snare5-qbh.wav",
								"filekind" : "audiofile",
								"selection" : [ 0.0, 1.0 ],
								"loop" : 0,
								"content_state" : 								{
									"pitchshift" : [ 1.0 ],
									"slurtime" : [ 0.0 ],
									"mode" : [ "basic" ],
									"originallength" : [ 0.0, "ticks" ],
									"pitchcorrection" : [ 0 ],
									"formantcorrection" : [ 0 ],
									"timestretch" : [ 0 ],
									"quality" : [ "basic" ],
									"formant" : [ 1.0 ],
									"basictuning" : [ 440 ],
									"originaltempo" : [ 120.0 ],
									"originallengthms" : [ 0.0 ],
									"speed" : [ 1.0 ],
									"followglobaltempo" : [ 0 ],
									"play" : [ 0 ]
								}

							}
, 							{
								"filename" : "F:/sound packs/kits/wu-tang_clan/wu-tang_clan-producer_kit_v.1.01b_(drum_samples)-qbh/wu-tang_clan-snare6-qbh.wav",
								"filekind" : "audiofile",
								"selection" : [ 0.0, 1.0 ],
								"loop" : 0,
								"content_state" : 								{
									"pitchshift" : [ 1.0 ],
									"slurtime" : [ 0.0 ],
									"mode" : [ "basic" ],
									"originallength" : [ 0.0, "ticks" ],
									"pitchcorrection" : [ 0 ],
									"formantcorrection" : [ 0 ],
									"timestretch" : [ 0 ],
									"quality" : [ "basic" ],
									"formant" : [ 1.0 ],
									"basictuning" : [ 440 ],
									"originaltempo" : [ 120.0 ],
									"originallengthms" : [ 0.0 ],
									"speed" : [ 1.0 ],
									"followglobaltempo" : [ 0 ],
									"play" : [ 0 ]
								}

							}
, 							{
								"filename" : "F:/sound packs/kits/wu-tang_clan/wu-tang_clan-producer_kit_v.1.01b_(drum_samples)-qbh/wu-tang_clan-snare7-qbh.wav",
								"filekind" : "audiofile",
								"selection" : [ 0.0, 1.0 ],
								"loop" : 0,
								"content_state" : 								{
									"pitchshift" : [ 1.0 ],
									"slurtime" : [ 0.0 ],
									"mode" : [ "basic" ],
									"originallength" : [ 0.0, "ticks" ],
									"pitchcorrection" : [ 0 ],
									"formantcorrection" : [ 0 ],
									"timestretch" : [ 0 ],
									"quality" : [ "basic" ],
									"formant" : [ 1.0 ],
									"basictuning" : [ 440 ],
									"originaltempo" : [ 120.0 ],
									"originallengthms" : [ 0.0 ],
									"speed" : [ 1.0 ],
									"followglobaltempo" : [ 0 ],
									"play" : [ 0 ]
								}

							}
, 							{
								"filename" : "F:/sound packs/kits/wu-tang_clan/wu-tang_clan-producer_kit_v.1.01b_(drum_samples)-qbh/wu-tang_clan-snare8-qbh.wav",
								"filekind" : "audiofile",
								"selection" : [ 0.0, 1.0 ],
								"loop" : 0,
								"content_state" : 								{
									"pitchshift" : [ 1.0 ],
									"slurtime" : [ 0.0 ],
									"mode" : [ "basic" ],
									"originallength" : [ 0.0, "ticks" ],
									"pitchcorrection" : [ 0 ],
									"formantcorrection" : [ 0 ],
									"timestretch" : [ 0 ],
									"quality" : [ "basic" ],
									"formant" : [ 1.0 ],
									"basictuning" : [ 440 ],
									"originaltempo" : [ 120.0 ],
									"originallengthms" : [ 0.0 ],
									"speed" : [ 1.0 ],
									"followglobaltempo" : [ 0 ],
									"play" : [ 0 ]
								}

							}
, 							{
								"filename" : "F:/sound packs/kits/wu-tang_clan/wu-tang_clan-producer_kit_v.1.01b_(drum_samples)-qbh/wu-tang_clan-snare9-qbh.wav",
								"filekind" : "audiofile",
								"selection" : [ 0.0, 1.0 ],
								"loop" : 0,
								"content_state" : 								{
									"pitchshift" : [ 1.0 ],
									"slurtime" : [ 0.0 ],
									"mode" : [ "basic" ],
									"originallength" : [ 0.0, "ticks" ],
									"pitchcorrection" : [ 0 ],
									"formantcorrection" : [ 0 ],
									"timestretch" : [ 0 ],
									"quality" : [ "basic" ],
									"formant" : [ 1.0 ],
									"basictuning" : [ 440 ],
									"originaltempo" : [ 120.0 ],
									"originallengthms" : [ 0.0 ],
									"speed" : [ 1.0 ],
									"followglobaltempo" : [ 0 ],
									"play" : [ 0 ]
								}

							}
 ]
					}
,
					"id" : "obj-22",
					"maxclass" : "playlist~",
					"numinlets" : 1,
					"numoutlets" : 5,
					"outlettype" : [ "signal", "signal", "signal", "", "dictionary" ],
					"patching_rect" : [ 941.0, 296.0, 269.0, 271.0 ],
					"style" : ""
				}

			}
, 			{
				"box" : 				{
					"clipheight" : 28.0,
					"data" : 					{
						"clips" : [ 							{
								"filename" : "F:/sound packs/kits/wu-tang_clan/wu-tang_clan-producer_kit_v.1.01b_(drum_samples)-qbh/wu-tang_clan-Rims1-qbh.wav",
								"filekind" : "audiofile",
								"selection" : [ 0.0, 1.0 ],
								"loop" : 0,
								"content_state" : 								{
									"pitchshift" : [ 1.0 ],
									"slurtime" : [ 0.0 ],
									"mode" : [ "basic" ],
									"originallength" : [ 0.0, "ticks" ],
									"pitchcorrection" : [ 0 ],
									"formantcorrection" : [ 0 ],
									"timestretch" : [ 0 ],
									"quality" : [ "basic" ],
									"formant" : [ 1.0 ],
									"basictuning" : [ 440 ],
									"originaltempo" : [ 120.0 ],
									"originallengthms" : [ 0.0 ],
									"speed" : [ 1.0 ],
									"followglobaltempo" : [ 0 ],
									"play" : [ 0 ]
								}

							}
 ]
					}
,
					"id" : "obj-20",
					"maxclass" : "playlist~",
					"numinlets" : 1,
					"numoutlets" : 5,
					"outlettype" : [ "signal", "signal", "signal", "", "dictionary" ],
					"patching_rect" : [ 628.0, 178.0, 216.0, 29.0 ],
					"style" : ""
				}

			}
, 			{
				"box" : 				{
					"clipheight" : 31.8,
					"data" : 					{
						"clips" : [ 							{
								"filename" : "F:/sound packs/kits/wu-tang_clan/wu-tang_clan-producer_kit_v.1.01b_(drum_samples)-qbh/wu-tang_clan-kick1-qbh.wav",
								"filekind" : "audiofile",
								"selection" : [ 0.0, 1.0 ],
								"loop" : 0,
								"content_state" : 								{
									"pitchshift" : [ 1.0 ],
									"slurtime" : [ 0.0 ],
									"mode" : [ "basic" ],
									"originallength" : [ 0.0, "ticks" ],
									"pitchcorrection" : [ 0 ],
									"formantcorrection" : [ 0 ],
									"timestretch" : [ 0 ],
									"quality" : [ "basic" ],
									"formant" : [ 1.0 ],
									"basictuning" : [ 440 ],
									"originaltempo" : [ 120.0 ],
									"originallengthms" : [ 0.0 ],
									"speed" : [ 1.0 ],
									"followglobaltempo" : [ 0 ],
									"play" : [ 0 ]
								}

							}
, 							{
								"filename" : "F:/sound packs/kits/wu-tang_clan/wu-tang_clan-producer_kit_v.1.01b_(drum_samples)-qbh/wu-tang_clan-kick2-qbh.wav",
								"filekind" : "audiofile",
								"selection" : [ 0.0, 1.0 ],
								"loop" : 0,
								"content_state" : 								{
									"pitchshift" : [ 1.0 ],
									"slurtime" : [ 0.0 ],
									"mode" : [ "basic" ],
									"originallength" : [ 0.0, "ticks" ],
									"pitchcorrection" : [ 0 ],
									"formantcorrection" : [ 0 ],
									"timestretch" : [ 0 ],
									"quality" : [ "basic" ],
									"formant" : [ 1.0 ],
									"basictuning" : [ 440 ],
									"originaltempo" : [ 120.0 ],
									"originallengthms" : [ 0.0 ],
									"speed" : [ 1.0 ],
									"followglobaltempo" : [ 0 ],
									"play" : [ 0 ]
								}

							}
, 							{
								"filename" : "F:/sound packs/kits/wu-tang_clan/wu-tang_clan-producer_kit_v.1.01b_(drum_samples)-qbh/wu-tang_clan-kick3-qbh.wav",
								"filekind" : "audiofile",
								"selection" : [ 0.0, 1.0 ],
								"loop" : 0,
								"content_state" : 								{
									"pitchshift" : [ 1.0 ],
									"slurtime" : [ 0.0 ],
									"mode" : [ "basic" ],
									"originallength" : [ 0.0, "ticks" ],
									"pitchcorrection" : [ 0 ],
									"formantcorrection" : [ 0 ],
									"timestretch" : [ 0 ],
									"quality" : [ "basic" ],
									"formant" : [ 1.0 ],
									"basictuning" : [ 440 ],
									"originaltempo" : [ 120.0 ],
									"originallengthms" : [ 0.0 ],
									"speed" : [ 1.0 ],
									"followglobaltempo" : [ 0 ],
									"play" : [ 0 ]
								}

							}
, 							{
								"filename" : "F:/sound packs/kits/wu-tang_clan/wu-tang_clan-producer_kit_v.1.01b_(drum_samples)-qbh/wu-tang_clan-kick4-qbh.wav",
								"filekind" : "audiofile",
								"selection" : [ 0.0, 1.0 ],
								"loop" : 0,
								"content_state" : 								{
									"pitchshift" : [ 1.0 ],
									"slurtime" : [ 0.0 ],
									"mode" : [ "basic" ],
									"originallength" : [ 0.0, "ticks" ],
									"pitchcorrection" : [ 0 ],
									"formantcorrection" : [ 0 ],
									"timestretch" : [ 0 ],
									"quality" : [ "basic" ],
									"formant" : [ 1.0 ],
									"basictuning" : [ 440 ],
									"originaltempo" : [ 120.0 ],
									"originallengthms" : [ 0.0 ],
									"speed" : [ 1.0 ],
									"followglobaltempo" : [ 0 ],
									"play" : [ 0 ]
								}

							}
, 							{
								"filename" : "F:/sound packs/kits/wu-tang_clan/wu-tang_clan-producer_kit_v.1.01b_(drum_samples)-qbh/wu-tang_clan-kick5-qbh.wav",
								"filekind" : "audiofile",
								"selection" : [ 0.0, 1.0 ],
								"loop" : 0,
								"content_state" : 								{
									"pitchshift" : [ 1.0 ],
									"slurtime" : [ 0.0 ],
									"mode" : [ "basic" ],
									"originallength" : [ 0.0, "ticks" ],
									"pitchcorrection" : [ 0 ],
									"formantcorrection" : [ 0 ],
									"timestretch" : [ 0 ],
									"quality" : [ "basic" ],
									"formant" : [ 1.0 ],
									"basictuning" : [ 440 ],
									"originaltempo" : [ 120.0 ],
									"originallengthms" : [ 0.0 ],
									"speed" : [ 1.0 ],
									"followglobaltempo" : [ 0 ],
									"play" : [ 0 ]
								}

							}
 ]
					}
,
					"id" : "obj-18",
					"maxclass" : "playlist~",
					"numinlets" : 1,
					"numoutlets" : 5,
					"outlettype" : [ "signal", "signal", "signal", "", "dictionary" ],
					"patching_rect" : [ 333.0, 316.0, 261.0, 164.0 ],
					"style" : ""
				}

			}
, 			{
				"box" : 				{
					"clipheight" : 28.0,
					"data" : 					{
						"clips" : [ 							{
								"filename" : "F:/sound packs/kits/wu-tang_clan/wu-tang_clan-producer_kit_v.1.01b_(drum_samples)-qbh/wu-tang_clan-hihat4-qbh.wav",
								"filekind" : "audiofile",
								"selection" : [ 0.0, 1.0 ],
								"loop" : 0,
								"content_state" : 								{
									"pitchshift" : [ 1.0 ],
									"slurtime" : [ 0.0 ],
									"mode" : [ "basic" ],
									"originallength" : [ 0.0, "ticks" ],
									"pitchcorrection" : [ 0 ],
									"formantcorrection" : [ 0 ],
									"timestretch" : [ 0 ],
									"quality" : [ "basic" ],
									"formant" : [ 1.0 ],
									"basictuning" : [ 440 ],
									"originaltempo" : [ 120.0 ],
									"originallengthms" : [ 0.0 ],
									"speed" : [ 1.0 ],
									"followglobaltempo" : [ 0 ],
									"play" : [ 0 ]
								}

							}
, 							{
								"filename" : "F:/sound packs/kits/wu-tang_clan/wu-tang_clan-producer_kit_v.1.01b_(drum_samples)-qbh/wu-tang_clan-hihat1-qbh.wav",
								"filekind" : "audiofile",
								"selection" : [ 0.0, 1.0 ],
								"loop" : 0,
								"content_state" : 								{
									"pitchshift" : [ 1.0 ],
									"slurtime" : [ 0.0 ],
									"mode" : [ "basic" ],
									"originallength" : [ 0.0, "ticks" ],
									"pitchcorrection" : [ 0 ],
									"formantcorrection" : [ 0 ],
									"timestretch" : [ 0 ],
									"quality" : [ "basic" ],
									"formant" : [ 1.0 ],
									"basictuning" : [ 440 ],
									"originaltempo" : [ 120.0 ],
									"originallengthms" : [ 0.0 ],
									"speed" : [ 1.0 ],
									"followglobaltempo" : [ 0 ],
									"play" : [ 0 ]
								}

							}
, 							{
								"filename" : "F:/sound packs/kits/wu-tang_clan/wu-tang_clan-producer_kit_v.1.01b_(drum_samples)-qbh/wu-tang_clan-hihat2-qbh.wav",
								"filekind" : "audiofile",
								"selection" : [ 0.0, 1.0 ],
								"loop" : 0,
								"content_state" : 								{
									"pitchshift" : [ 1.0 ],
									"slurtime" : [ 0.0 ],
									"mode" : [ "basic" ],
									"originallength" : [ 0.0, "ticks" ],
									"pitchcorrection" : [ 0 ],
									"formantcorrection" : [ 0 ],
									"timestretch" : [ 0 ],
									"quality" : [ "basic" ],
									"formant" : [ 1.0 ],
									"basictuning" : [ 440 ],
									"originaltempo" : [ 120.0 ],
									"originallengthms" : [ 0.0 ],
									"speed" : [ 1.0 ],
									"followglobaltempo" : [ 0 ],
									"play" : [ 0 ]
								}

							}
, 							{
								"filename" : "F:/sound packs/kits/wu-tang_clan/wu-tang_clan-producer_kit_v.1.01b_(drum_samples)-qbh/wu-tang_clan-hihat3-qbh.wav",
								"filekind" : "audiofile",
								"selection" : [ 0.0, 1.0 ],
								"loop" : 0,
								"content_state" : 								{
									"pitchshift" : [ 1.0 ],
									"slurtime" : [ 0.0 ],
									"mode" : [ "basic" ],
									"originallength" : [ 0.0, "ticks" ],
									"pitchcorrection" : [ 0 ],
									"formantcorrection" : [ 0 ],
									"timestretch" : [ 0 ],
									"quality" : [ "basic" ],
									"formant" : [ 1.0 ],
									"basictuning" : [ 440 ],
									"originaltempo" : [ 120.0 ],
									"originallengthms" : [ 0.0 ],
									"speed" : [ 1.0 ],
									"followglobaltempo" : [ 0 ],
									"play" : [ 0 ]
								}

							}
 ]
					}
,
					"id" : "obj-15",
					"maxclass" : "playlist~",
					"numinlets" : 1,
					"numoutlets" : 5,
					"outlettype" : [ "signal", "signal", "signal", "", "dictionary" ],
					"patching_rect" : [ 40.0, 312.0, 247.0, 116.0 ],
					"style" : ""
				}

			}
, 			{
				"box" : 				{
					"id" : "obj-16",
					"maxclass" : "live.gain~",
					"numinlets" : 2,
					"numoutlets" : 5,
					"orientation" : 1,
					"outlettype" : [ "signal", "signal", "", "float", "list" ],
					"parameter_enable" : 1,
					"patching_rect" : [ 40.0, 615.0, 121.0, 49.0 ],
					"presentation_rect" : [ 0.0, 0.0, 50.0, 35.0 ],
					"saved_attribute_attributes" : 					{
						"valueof" : 						{
							"parameter_longname" : "live.gain~",
							"parameter_shortname" : "live.gain~",
							"parameter_type" : 0,
							"parameter_mmin" : -70.0,
							"parameter_mmax" : 6.0,
							"parameter_initial" : [ 0.0 ],
							"parameter_unitstyle" : 4
						}

					}
,
					"varname" : "live.gain~"
				}

			}
, 			{
				"box" : 				{
					"id" : "obj-10",
					"local" : 1,
					"maxclass" : "ezdac~",
					"numinlets" : 2,
					"numoutlets" : 0,
					"patching_rect" : [ 40.0, 675.0, 45.0, 45.0 ],
					"presentation_rect" : [ 15.0, 35.0, 45.0, 45.0 ],
					"style" : ""
				}

			}
 ],
		"lines" : [ 			{
				"patchline" : 				{
					"destination" : [ "obj-16", 1 ],
					"disabled" : 0,
					"hidden" : 0,
					"source" : [ "obj-15", 1 ]
				}

			}
, 			{
				"patchline" : 				{
					"destination" : [ "obj-16", 0 ],
					"disabled" : 0,
					"hidden" : 0,
					"source" : [ "obj-15", 0 ]
				}

			}
, 			{
				"patchline" : 				{
					"destination" : [ "obj-10", 1 ],
					"disabled" : 0,
					"hidden" : 0,
					"source" : [ "obj-16", 1 ]
				}

			}
, 			{
				"patchline" : 				{
					"destination" : [ "obj-10", 0 ],
					"disabled" : 0,
					"hidden" : 0,
					"source" : [ "obj-16", 0 ]
				}

			}
, 			{
				"patchline" : 				{
					"destination" : [ "obj-23", 1 ],
					"disabled" : 0,
					"hidden" : 0,
					"source" : [ "obj-18", 1 ]
				}

			}
, 			{
				"patchline" : 				{
					"destination" : [ "obj-23", 0 ],
					"disabled" : 0,
					"hidden" : 0,
					"source" : [ "obj-18", 0 ]
				}

			}
, 			{
				"patchline" : 				{
					"destination" : [ "obj-25", 1 ],
					"disabled" : 0,
					"hidden" : 0,
					"source" : [ "obj-20", 1 ]
				}

			}
, 			{
				"patchline" : 				{
					"destination" : [ "obj-25", 0 ],
					"disabled" : 0,
					"hidden" : 0,
					"source" : [ "obj-20", 0 ]
				}

			}
, 			{
				"patchline" : 				{
					"destination" : [ "obj-27", 1 ],
					"disabled" : 0,
					"hidden" : 0,
					"source" : [ "obj-22", 1 ]
				}

			}
, 			{
				"patchline" : 				{
					"destination" : [ "obj-27", 0 ],
					"disabled" : 0,
					"hidden" : 0,
					"source" : [ "obj-22", 0 ]
				}

			}
, 			{
				"patchline" : 				{
					"destination" : [ "obj-24", 1 ],
					"disabled" : 0,
					"hidden" : 0,
					"source" : [ "obj-23", 1 ]
				}

			}
, 			{
				"patchline" : 				{
					"destination" : [ "obj-24", 0 ],
					"disabled" : 0,
					"hidden" : 0,
					"source" : [ "obj-23", 0 ]
				}

			}
, 			{
				"patchline" : 				{
					"destination" : [ "obj-26", 1 ],
					"disabled" : 0,
					"hidden" : 0,
					"source" : [ "obj-25", 1 ]
				}

			}
, 			{
				"patchline" : 				{
					"destination" : [ "obj-26", 0 ],
					"disabled" : 0,
					"hidden" : 0,
					"source" : [ "obj-25", 0 ]
				}

			}
, 			{
				"patchline" : 				{
					"destination" : [ "obj-28", 1 ],
					"disabled" : 0,
					"hidden" : 0,
					"source" : [ "obj-27", 1 ]
				}

			}
, 			{
				"patchline" : 				{
					"destination" : [ "obj-28", 0 ],
					"disabled" : 0,
					"hidden" : 0,
					"source" : [ "obj-27", 0 ]
				}

			}
, 			{
				"patchline" : 				{
					"destination" : [ "obj-16", 0 ],
					"disabled" : 0,
					"hidden" : 0,
					"source" : [ "obj-29", 0 ]
				}

			}
, 			{
				"patchline" : 				{
					"destination" : [ "obj-23", 0 ],
					"disabled" : 0,
					"hidden" : 0,
					"source" : [ "obj-29", 0 ]
				}

			}
, 			{
				"patchline" : 				{
					"destination" : [ "obj-25", 0 ],
					"disabled" : 0,
					"hidden" : 0,
					"source" : [ "obj-29", 0 ]
				}

			}
, 			{
				"patchline" : 				{
					"destination" : [ "obj-27", 0 ],
					"disabled" : 0,
					"hidden" : 0,
					"source" : [ "obj-29", 0 ]
				}

			}
, 			{
				"patchline" : 				{
					"destination" : [ "obj-29", 0 ],
					"disabled" : 0,
					"hidden" : 0,
					"source" : [ "obj-31", 0 ]
				}

			}
, 			{
				"patchline" : 				{
					"destination" : [ "obj-42", 0 ],
					"disabled" : 0,
					"hidden" : 0,
					"source" : [ "obj-32", 0 ]
				}

			}
, 			{
				"patchline" : 				{
					"destination" : [ "obj-75", 0 ],
					"disabled" : 0,
					"hidden" : 0,
					"source" : [ "obj-32", 0 ]
				}

			}
, 			{
				"patchline" : 				{
					"destination" : [ "obj-32", 1 ],
					"disabled" : 0,
					"hidden" : 0,
					"source" : [ "obj-34", 0 ]
				}

			}
, 			{
				"patchline" : 				{
					"destination" : [ "obj-38", 1 ],
					"disabled" : 0,
					"hidden" : 0,
					"source" : [ "obj-36", 0 ]
				}

			}
, 			{
				"patchline" : 				{
					"destination" : [ "obj-32", 1 ],
					"disabled" : 0,
					"hidden" : 0,
					"source" : [ "obj-38", 0 ]
				}

			}
, 			{
				"patchline" : 				{
					"destination" : [ "obj-15", 0 ],
					"disabled" : 0,
					"hidden" : 0,
					"source" : [ "obj-40", 0 ]
				}

			}
, 			{
				"patchline" : 				{
					"destination" : [ "obj-40", 0 ],
					"disabled" : 0,
					"hidden" : 0,
					"source" : [ "obj-42", 0 ]
				}

			}
, 			{
				"patchline" : 				{
					"destination" : [ "obj-32", 0 ],
					"disabled" : 0,
					"hidden" : 0,
					"source" : [ "obj-44", 0 ]
				}

			}
, 			{
				"patchline" : 				{
					"destination" : [ "obj-32", 1 ],
					"disabled" : 0,
					"hidden" : 0,
					"source" : [ "obj-46", 0 ]
				}

			}
, 			{
				"patchline" : 				{
					"destination" : [ "obj-54", 1 ],
					"disabled" : 0,
					"hidden" : 0,
					"source" : [ "obj-47", 0 ]
				}

			}
, 			{
				"patchline" : 				{
					"destination" : [ "obj-54", 0 ],
					"disabled" : 0,
					"hidden" : 0,
					"source" : [ "obj-48", 0 ]
				}

			}
, 			{
				"patchline" : 				{
					"destination" : [ "obj-50", 0 ],
					"disabled" : 0,
					"hidden" : 0,
					"source" : [ "obj-49", 0 ]
				}

			}
, 			{
				"patchline" : 				{
					"destination" : [ "obj-18", 0 ],
					"disabled" : 0,
					"hidden" : 0,
					"source" : [ "obj-50", 0 ]
				}

			}
, 			{
				"patchline" : 				{
					"destination" : [ "obj-54", 1 ],
					"disabled" : 0,
					"hidden" : 0,
					"source" : [ "obj-51", 0 ]
				}

			}
, 			{
				"patchline" : 				{
					"destination" : [ "obj-51", 1 ],
					"disabled" : 0,
					"hidden" : 0,
					"source" : [ "obj-52", 0 ]
				}

			}
, 			{
				"patchline" : 				{
					"destination" : [ "obj-54", 1 ],
					"disabled" : 0,
					"hidden" : 0,
					"source" : [ "obj-53", 0 ]
				}

			}
, 			{
				"patchline" : 				{
					"destination" : [ "obj-49", 0 ],
					"disabled" : 0,
					"hidden" : 0,
					"source" : [ "obj-54", 0 ]
				}

			}
, 			{
				"patchline" : 				{
					"destination" : [ "obj-63", 1 ],
					"disabled" : 0,
					"hidden" : 0,
					"source" : [ "obj-56", 0 ]
				}

			}
, 			{
				"patchline" : 				{
					"destination" : [ "obj-63", 0 ],
					"disabled" : 0,
					"hidden" : 0,
					"source" : [ "obj-57", 0 ]
				}

			}
, 			{
				"patchline" : 				{
					"destination" : [ "obj-59", 0 ],
					"disabled" : 0,
					"hidden" : 0,
					"source" : [ "obj-58", 0 ]
				}

			}
, 			{
				"patchline" : 				{
					"destination" : [ "obj-20", 0 ],
					"disabled" : 0,
					"hidden" : 0,
					"source" : [ "obj-59", 0 ]
				}

			}
, 			{
				"patchline" : 				{
					"destination" : [ "obj-63", 1 ],
					"disabled" : 0,
					"hidden" : 0,
					"source" : [ "obj-60", 0 ]
				}

			}
, 			{
				"patchline" : 				{
					"destination" : [ "obj-60", 1 ],
					"disabled" : 0,
					"hidden" : 0,
					"source" : [ "obj-61", 0 ]
				}

			}
, 			{
				"patchline" : 				{
					"destination" : [ "obj-63", 1 ],
					"disabled" : 0,
					"hidden" : 0,
					"source" : [ "obj-62", 0 ]
				}

			}
, 			{
				"patchline" : 				{
					"destination" : [ "obj-58", 0 ],
					"disabled" : 0,
					"hidden" : 0,
					"source" : [ "obj-63", 0 ]
				}

			}
, 			{
				"patchline" : 				{
					"destination" : [ "obj-63", 1 ],
					"disabled" : 0,
					"hidden" : 0,
					"source" : [ "obj-67", 0 ]
				}

			}
, 			{
				"patchline" : 				{
					"destination" : [ "obj-48", 0 ],
					"disabled" : 0,
					"hidden" : 0,
					"source" : [ "obj-69", 0 ]
				}

			}
, 			{
				"patchline" : 				{
					"destination" : [ "obj-57", 0 ],
					"disabled" : 0,
					"hidden" : 0,
					"source" : [ "obj-69", 0 ]
				}

			}
, 			{
				"patchline" : 				{
					"destination" : [ "obj-70", 0 ],
					"disabled" : 0,
					"hidden" : 0,
					"source" : [ "obj-69", 0 ]
				}

			}
, 			{
				"patchline" : 				{
					"destination" : [ "obj-80", 0 ],
					"disabled" : 0,
					"hidden" : 0,
					"source" : [ "obj-69", 0 ]
				}

			}
, 			{
				"patchline" : 				{
					"destination" : [ "obj-44", 0 ],
					"disabled" : 0,
					"hidden" : 0,
					"source" : [ "obj-70", 0 ]
				}

			}
, 			{
				"patchline" : 				{
					"destination" : [ "obj-32", 1 ],
					"disabled" : 0,
					"hidden" : 0,
					"source" : [ "obj-72", 0 ]
				}

			}
, 			{
				"patchline" : 				{
					"destination" : [ "obj-32", 1 ],
					"disabled" : 0,
					"hidden" : 0,
					"source" : [ "obj-74", 0 ]
				}

			}
, 			{
				"patchline" : 				{
					"destination" : [ "obj-77", 0 ],
					"disabled" : 0,
					"hidden" : 0,
					"source" : [ "obj-75", 0 ]
				}

			}
, 			{
				"patchline" : 				{
					"destination" : [ "obj-42", 0 ],
					"disabled" : 0,
					"hidden" : 0,
					"source" : [ "obj-77", 0 ]
				}

			}
, 			{
				"patchline" : 				{
					"destination" : [ "obj-86", 1 ],
					"disabled" : 0,
					"hidden" : 0,
					"source" : [ "obj-78", 0 ]
				}

			}
, 			{
				"patchline" : 				{
					"destination" : [ "obj-86", 1 ],
					"disabled" : 0,
					"hidden" : 0,
					"source" : [ "obj-79", 0 ]
				}

			}
, 			{
				"patchline" : 				{
					"destination" : [ "obj-93", 0 ],
					"disabled" : 0,
					"hidden" : 0,
					"source" : [ "obj-80", 0 ]
				}

			}
, 			{
				"patchline" : 				{
					"destination" : [ "obj-82", 0 ],
					"disabled" : 0,
					"hidden" : 0,
					"source" : [ "obj-81", 0 ]
				}

			}
, 			{
				"patchline" : 				{
					"destination" : [ "obj-22", 0 ],
					"disabled" : 0,
					"hidden" : 0,
					"source" : [ "obj-82", 0 ]
				}

			}
, 			{
				"patchline" : 				{
					"destination" : [ "obj-86", 1 ],
					"disabled" : 0,
					"hidden" : 0,
					"source" : [ "obj-83", 0 ]
				}

			}
, 			{
				"patchline" : 				{
					"destination" : [ "obj-83", 1 ],
					"disabled" : 0,
					"hidden" : 0,
					"source" : [ "obj-84", 0 ]
				}

			}
, 			{
				"patchline" : 				{
					"destination" : [ "obj-86", 1 ],
					"disabled" : 0,
					"hidden" : 0,
					"source" : [ "obj-85", 0 ]
				}

			}
, 			{
				"patchline" : 				{
					"destination" : [ "obj-81", 0 ],
					"disabled" : 0,
					"hidden" : 0,
					"source" : [ "obj-86", 0 ]
				}

			}
, 			{
				"patchline" : 				{
					"destination" : [ "obj-86", 0 ],
					"disabled" : 0,
					"hidden" : 0,
					"source" : [ "obj-93", 0 ]
				}

			}
 ],
		"parameters" : 		{
			"obj-23" : [ "live.gain~[1]", "live.gain~", 0 ],
			"obj-16" : [ "live.gain~", "live.gain~", 0 ],
			"obj-25" : [ "live.gain~[2]", "live.gain~", 0 ],
			"obj-27" : [ "live.gain~[3]", "live.gain~", 0 ]
		}
,
		"dependency_cache" : [ 			{
				"name" : "wu-tang_clan-hihat4-qbh.wav",
				"bootpath" : "F:/sound packs/kits/wu-tang_clan/wu-tang_clan-producer_kit_v.1.01b_(drum_samples)-qbh",
				"type" : "WAVE",
				"implicit" : 1
			}
, 			{
				"name" : "wu-tang_clan-hihat1-qbh.wav",
				"bootpath" : "F:/sound packs/kits/wu-tang_clan/wu-tang_clan-producer_kit_v.1.01b_(drum_samples)-qbh",
				"type" : "WAVE",
				"implicit" : 1
			}
, 			{
				"name" : "wu-tang_clan-hihat2-qbh.wav",
				"bootpath" : "F:/sound packs/kits/wu-tang_clan/wu-tang_clan-producer_kit_v.1.01b_(drum_samples)-qbh",
				"type" : "WAVE",
				"implicit" : 1
			}
, 			{
				"name" : "wu-tang_clan-hihat3-qbh.wav",
				"bootpath" : "F:/sound packs/kits/wu-tang_clan/wu-tang_clan-producer_kit_v.1.01b_(drum_samples)-qbh",
				"type" : "WAVE",
				"implicit" : 1
			}
, 			{
				"name" : "wu-tang_clan-kick1-qbh.wav",
				"bootpath" : "F:/sound packs/kits/wu-tang_clan/wu-tang_clan-producer_kit_v.1.01b_(drum_samples)-qbh",
				"type" : "WAVE",
				"implicit" : 1
			}
, 			{
				"name" : "wu-tang_clan-kick2-qbh.wav",
				"bootpath" : "F:/sound packs/kits/wu-tang_clan/wu-tang_clan-producer_kit_v.1.01b_(drum_samples)-qbh",
				"type" : "WAVE",
				"implicit" : 1
			}
, 			{
				"name" : "wu-tang_clan-kick3-qbh.wav",
				"bootpath" : "F:/sound packs/kits/wu-tang_clan/wu-tang_clan-producer_kit_v.1.01b_(drum_samples)-qbh",
				"type" : "WAVE",
				"implicit" : 1
			}
, 			{
				"name" : "wu-tang_clan-kick4-qbh.wav",
				"bootpath" : "F:/sound packs/kits/wu-tang_clan/wu-tang_clan-producer_kit_v.1.01b_(drum_samples)-qbh",
				"type" : "WAVE",
				"implicit" : 1
			}
, 			{
				"name" : "wu-tang_clan-kick5-qbh.wav",
				"bootpath" : "F:/sound packs/kits/wu-tang_clan/wu-tang_clan-producer_kit_v.1.01b_(drum_samples)-qbh",
				"type" : "WAVE",
				"implicit" : 1
			}
, 			{
				"name" : "wu-tang_clan-Rims1-qbh.wav",
				"bootpath" : "F:/sound packs/kits/wu-tang_clan/wu-tang_clan-producer_kit_v.1.01b_(drum_samples)-qbh",
				"type" : "WAVE",
				"implicit" : 1
			}
, 			{
				"name" : "wu-tang_clan-snare1-qbh.wav",
				"bootpath" : "F:/sound packs/kits/wu-tang_clan/wu-tang_clan-producer_kit_v.1.01b_(drum_samples)-qbh",
				"type" : "WAVE",
				"implicit" : 1
			}
, 			{
				"name" : "wu-tang_clan-snare2-qbh.wav",
				"bootpath" : "F:/sound packs/kits/wu-tang_clan/wu-tang_clan-producer_kit_v.1.01b_(drum_samples)-qbh",
				"type" : "WAVE",
				"implicit" : 1
			}
, 			{
				"name" : "wu-tang_clan-snare3-qbh.wav",
				"bootpath" : "F:/sound packs/kits/wu-tang_clan/wu-tang_clan-producer_kit_v.1.01b_(drum_samples)-qbh",
				"type" : "WAVE",
				"implicit" : 1
			}
, 			{
				"name" : "wu-tang_clan-snare4-qbh.wav",
				"bootpath" : "F:/sound packs/kits/wu-tang_clan/wu-tang_clan-producer_kit_v.1.01b_(drum_samples)-qbh",
				"type" : "WAVE",
				"implicit" : 1
			}
, 			{
				"name" : "wu-tang_clan-snare5-qbh.wav",
				"bootpath" : "F:/sound packs/kits/wu-tang_clan/wu-tang_clan-producer_kit_v.1.01b_(drum_samples)-qbh",
				"type" : "WAVE",
				"implicit" : 1
			}
, 			{
				"name" : "wu-tang_clan-snare6-qbh.wav",
				"bootpath" : "F:/sound packs/kits/wu-tang_clan/wu-tang_clan-producer_kit_v.1.01b_(drum_samples)-qbh",
				"type" : "WAVE",
				"implicit" : 1
			}
, 			{
				"name" : "wu-tang_clan-snare7-qbh.wav",
				"bootpath" : "F:/sound packs/kits/wu-tang_clan/wu-tang_clan-producer_kit_v.1.01b_(drum_samples)-qbh",
				"type" : "WAVE",
				"implicit" : 1
			}
, 			{
				"name" : "wu-tang_clan-snare8-qbh.wav",
				"bootpath" : "F:/sound packs/kits/wu-tang_clan/wu-tang_clan-producer_kit_v.1.01b_(drum_samples)-qbh",
				"type" : "WAVE",
				"implicit" : 1
			}
, 			{
				"name" : "wu-tang_clan-snare9-qbh.wav",
				"bootpath" : "F:/sound packs/kits/wu-tang_clan/wu-tang_clan-producer_kit_v.1.01b_(drum_samples)-qbh",
				"type" : "WAVE",
				"implicit" : 1
			}
 ],
		"autosave" : 0
	}

}
